<?xml version="1.0" encoding="utf-8"?>
<!-- Generator: Adobe Illustrator 24.2.0, SVG Export Plug-In . SVG Version: 6.00 Build 0)  -->
<svg version="1.1" id="logo" xmlns="http://www.w3.org/2000/svg" xmlns:xlink="http://www.w3.org/1999/xlink" x="0px"
	y="0px" viewBox="0 0 1133.9 1133.9" style="enable-background:new 0 0 1133.9 1133.9;" xml:space="preserve">
	<style type="text/css">
		.st0 {
			opacity: 0.02;
		}

		.st1 {
			opacity: 0.02;
			fill: none;
			stroke: #227CFF;
			stroke-width: 28;
			stroke-linecap: round;
			stroke-linejoin: round;
			stroke-miterlimit: 10;
		}

		.st2 {
			opacity: 0.02;
			fill: none;
			stroke: #000000;
			stroke-width: 18;
			stroke-linecap: round;
			stroke-miterlimit: 10;
		}
	</style>
	<path class="st0" d="M357.8,426.4l192-110.8c10.6-6.2,23.7-6.2,34.3,0l192,110.8c10.6,6.2,17.1,17.5,17.1,29.7v221.7
	c0,12.2-6.5,23.5-17.1,29.7l-192,110.8c-10.6,6.2-23.7,6.2-34.3,0l-192-110.8c-10.6-6.2-17.1-17.5-17.1-29.7V456.1
	C340.7,443.8,347.3,432.5,357.8,426.4z M586.3,592v164.1c0,16,17.3,26,31.1,18l142-82.1c6.4-3.7,10.4-10.6,10.4-18l0.1-164
	c0-16-17.3-26-31.1-18l-142.1,82C590.2,577.7,586.3,584.5,586.3,592z" />
	<line class="st1" x1="618.6" y1="616.2" x2="741" y2="545.5" />
	<line class="st2" x1="618.6" y1="678.2" x2="702.6" y2="629.6" />
	<line class="st2" x1="618.6" y1="726.8" x2="702.6" y2="678.2" />
	<path class="st0" d="M-209.1-140.6l192-110.8c10.6-6.2,23.7-6.2,34.3,0l192,110.8c10.6,6.2,17.1,17.5,17.1,29.7v221.7
	c0,12.2-6.5,23.5-17.1,29.7l-192,110.8c-10.6,6.2-23.7,6.2-34.3,0l-192-110.8c-10.6-6.2-17.1-17.5-17.1-29.7v-221.7
	C-226.2-123.2-219.6-134.5-209.1-140.6z M19.4,25v164.1c0,16,17.3,26,31.1,18l142-82.1c6.4-3.7,10.4-10.6,10.4-18L203-57
	c0-16-17.3-26-31.1-18L29.8,7C23.3,10.7,19.4,17.5,19.4,25z" />
	<line class="st1" x1="51.7" y1="49.2" x2="174.1" y2="-21.5" />
	<line class="st2" x1="51.7" y1="111.2" x2="135.7" y2="62.6" />
	<line class="st2" x1="51.7" y1="159.8" x2="135.7" y2="111.2" />
	<path class="st0" d="M-209.1,993.3l192-110.8c10.6-6.2,23.7-6.2,34.3,0l192,110.8c10.6,6.2,17.1,17.5,17.1,29.7v221.7
	c0,12.2-6.5,23.5-17.1,29.7l-192,110.8c-10.6,6.2-23.7,6.2-34.3,0l-192-110.8c-10.6-6.2-17.1-17.5-17.1-29.7V1023
	C-226.2,1010.7-219.6,999.4-209.1,993.3z M19.4,1158.9V1323c0,16,17.3,26,31.1,18l142-82.1c6.4-3.7,10.4-10.6,10.4-18l0.1-164
	c0-16-17.3-26-31.1-18l-142.1,82C23.3,1144.6,19.4,1151.4,19.4,1158.9z" />
	<line class="st1" x1="51.7" y1="1183.1" x2="174.1" y2="1112.4" />
	<line class="st2" x1="51.7" y1="1245.1" x2="135.7" y2="1196.5" />
	<line class="st2" x1="51.7" y1="1293.7" x2="135.7" y2="1245.1" />
	<path class="st0" d="M924.7,993.3l192-110.8c10.6-6.2,23.7-6.2,34.3,0l192,110.8c10.6,6.2,17.1,17.5,17.1,29.7v221.7
	c0,12.2-6.5,23.5-17.1,29.7l-192,110.8c-10.6,6.2-23.7,6.2-34.3,0l-192-110.8c-10.6-6.2-17.1-17.5-17.1-29.7V1023
	C907.6,1010.7,914.2,999.4,924.7,993.3z M1153.2,1158.9V1323c0,16,17.3,26,31.1,18l142-82.1c6.4-3.7,10.4-10.6,10.4-18l0.1-164
	c0-16-17.3-26-31.1-18l-142.1,82C1157.1,1144.6,1153.2,1151.4,1153.2,1158.9z" />
	<line class="st1" x1="1185.5" y1="1183.1" x2="1307.9" y2="1112.4" />
	<line class="st2" x1="1185.5" y1="1245.1" x2="1269.5" y2="1196.5" />
	<line class="st2" x1="1185.5" y1="1293.7" x2="1269.5" y2="1245.1" />
	<path class="st0" d="M924.7-140.6l192-110.8c10.6-6.2,23.7-6.2,34.3,0l192,110.8c10.6,6.2,17.1,17.5,17.1,29.7v221.7
	c0,12.2-6.5,23.5-17.1,29.7l-192,110.8c-10.6,6.2-23.7,6.2-34.3,0l-192-110.8c-10.6-6.2-17.1-17.5-17.1-29.7v-221.7
	C907.6-123.2,914.2-134.5,924.7-140.6z M1153.2,25v164.1c0,16,17.3,26,31.1,18l142-82.1c6.4-3.7,10.4-10.6,10.4-18l0.1-164
	c0-16-17.3-26-31.1-18L1163.6,7C1157.1,10.7,1153.2,17.5,1153.2,25z" />
	<line class="st1" x1="1185.5" y1="49.2" x2="1307.9" y2="-21.5" />
	<line class="st2" x1="1185.5" y1="111.2" x2="1269.5" y2="62.6" />
	<line class="st2" x1="1185.5" y1="159.8" x2="1269.5" y2="111.2" />
</svg>